<?xml version="1.0" encoding="utf-8"?>
<!-- Generator: Adobe Illustrator 18.0.0, SVG Export Plug-In . SVG Version: 6.00 Build 0)  -->
<!DOCTYPE svg PUBLIC "-//W3C//DTD SVG 1.1//EN" "http://www.w3.org/Graphics/SVG/1.1/DTD/svg11.dtd">
<svg version="1.1" id="Layer_1" xmlns:sketch="http://www.bohemiancoding.com/sketch/ns"
	 xmlns="http://www.w3.org/2000/svg" xmlns:xlink="http://www.w3.org/1999/xlink" x="0px" y="0px" viewBox="271 71 560 560"
	 enable-background="new 271 71 560 560" xml:space="preserve">
<title>Artboard 1</title>
<desc>Created with Sketch.</desc>
<path id="Imported-Layers_4_" sketch:type="MSShapeGroup" fill="#F04541" d="M550,68.2c-155.4,0-281.8,126.4-281.8,281.8
	S394.6,631.8,550,631.8c155.3,0,281.8-126.4,281.8-281.8S705.3,68.2,550,68.2L550,68.2z M707.4,465.4c11.6,11.6,11.5,30.3-0.1,41.9
	c-11.6,11.6-30.3,11.6-41.9,0.1L550,391.9L434.6,507.4c-11.6,11.6-30.3,11.5-41.9-0.1c-11.6-11.6-11.7-30.3-0.1-41.9L508.1,350
	L392.6,234.6c-11.6-11.6-10.4-31.4,0-41.9c10.5-10.5,30.3-11.6,41.9,0L550,308.1l115.4-115.4c11.6-11.6,30.3-11.6,41.9,0.1
	c11.6,11.6,11.6,30.3,0.1,41.9L591.9,350L707.4,465.4L707.4,465.4z"/>
</svg>
